<?xml version="1.0" standalone="no"?>
<!DOCTYPE svg PUBLIC "-//W3C//DTD SVG 20010904//EN"
 "http://www.w3.org/TR/2001/REC-SVG-20010904/DTD/svg10.dtd">
<svg version="1.0" xmlns="http://www.w3.org/2000/svg"
 width="933.000000pt" height="883.000000pt" viewBox="0 0 933.000000 883.000000"
 preserveAspectRatio="xMidYMid meet">

<g transform="translate(0.000000,883.000000) scale(0.100000,-0.100000)"
fill="#FFFFFF" stroke="none">
<path d="M945 8680 c-246 -33 -479 -167 -628 -362 -331 -432 -229 -1040 226
-1347 231 -157 530 -198 801 -111 292 94 533 346 616 642 76 271 19 579 -148
799 -210 276 -542 421 -867 379z"/>
<path d="M3215 8445 c-243 -53 -437 -238 -516 -495 -34 -108 -34 -292 0 -400
71 -231 231 -402 446 -477 l80 -28 2630 -3 c1887 -2 2648 0 2695 8 252 43 458
233 542 500 33 108 33 292 0 400 -83 264 -286 453 -536 499 -95 17 -5261 14
-5341 -4z"/>
<path d="M943 5379 c-242 -31 -478 -167 -626 -361 -398 -520 -158 -1264 471
-1462 316 -99 657 -20 901 210 266 251 364 588 270 934 -78 291 -324 546 -615
640 -140 45 -265 57 -401 39z"/>
<path d="M3215 5145 c-244 -53 -435 -236 -516 -495 -34 -107 -34 -292 0 -400
80 -259 273 -443 520 -496 101 -21 5254 -20 5354 1 244 51 438 237 519 495 33
108 33 292 0 400 -83 261 -274 443 -522 496 -94 20 -5263 19 -5355 -1z"/>
<path d="M943 2079 c-242 -31 -478 -167 -626 -361 -367 -480 -195 -1162 356
-1418 260 -121 564 -113 815 21 426 227 613 723 441 1171 -75 194 -246 383
-441 487 -165 88 -361 124 -545 100z"/>
<path d="M3215 1845 c-243 -53 -436 -238 -517 -495 -33 -108 -33 -292 0 -400
81 -260 275 -443 521 -496 98 -20 5253 -21 5351 0 248 53 439 235 522 496 33
108 33 292 0 400 -83 261 -274 443 -522 496 -94 20 -5263 19 -5355 -1z"/>
</g>
</svg>
